<svg version="1.1" id="Capa_1" xmlns="http://www.w3.org/2000/svg" xmlns:xlink="http://www.w3.org/1999/xlink" x="0px" y="0px" viewBox="0 0 201 99.3" style="enable-background:new 0 0 201 99.3;" xml:space="preserve">
<g>
	<g>
		<path d="M26,88.1h2.2c2,0,3.5,1.3,3.5,3.4c0,1.9-1.3,3.3-3.2,3.3H26V88.1z M26.9,88.5v5.9h1.5c1.3,0,2.3-1.1,2.3-2.9    c0-1.9-1.1-3-2.5-3L26.9,88.5L26.9,88.5z"/>
		<path d="M36.2,88.1h4.7v0.4h-3.8v2.7h3.5v0.4h-3.5v2.9H41v0.4h-4.8L36.2,88.1L36.2,88.1z"/>
		<path d="M45.5,88.1h2.2c1.5,0,2.5,0.8,2.5,2c0,1.2-1,2-2.5,2h-1.3v2.8h-1L45.5,88.1L45.5,88.1z M46.5,88.5v3.2h1    c1,0,1.8-0.6,1.8-1.6s-0.7-1.6-1.8-1.6H46.5z"/>
		<path d="M58,92.8h-3.2l-0.9,2h-0.5l2.9-6.7h0.5l3.1,6.7h-1.1L58,92.8z M55,92.4h2.9l-1.5-3.2L55,92.4z"/>
		<path d="M64.2,88.1h2.3c1.5,0,2.5,0.7,2.5,1.9c0,1-0.6,1.6-1.7,1.8l2,3h-1l-2-3h-1.2v3h-1L64.2,88.1L64.2,88.1z M65.1,88.5v3h1.1    c1,0,1.7-0.5,1.7-1.5c0-1-0.7-1.5-1.7-1.5H65.1z"/>
		<path d="M72.6,88.1h5.9v0.4H76v6.3h-1v-6.3h-2.5L72.6,88.1L72.6,88.1z"/>
		<path d="M86.2,93.5l2.5-5.4v0h1v6.7h-1v-5.7l-2.4,5.4h-0.6L83,89.1v5.7h-0.4v-6.7h1L86.2,93.5z"/>
		<path d="M94.5,88.1h4.7v0.4h-3.8v2.7h3.5v0.4h-3.5v2.9h3.9v0.4h-4.8L94.5,88.1L94.5,88.1z"/>
		<path d="M104.2,94.8h-0.4v-6.7h0.4l4.8,5.3v-5.3h0.4v6.7h-0.4l-4.8-5.3V94.8z"/>
		<path d="M113.5,88.1h5.9v0.4h-2.5v6.3h-1v-6.3h-2.5C113.5,88.5,113.5,88.1,113.5,88.1z"/>
		<path d="M131.8,91.1c1.4,0.6,2.1,1,2.1,2.1c0,1.1-0.8,1.7-2.4,1.7c-1.7,0-2.7-0.7-2.7-2.1h1c0,1,0.6,1.7,1.8,1.7    c0.8,0,1.4-0.3,1.4-1.1c0-0.7-0.5-1-2-1.6c-1.2-0.6-2-0.9-2-2c0-1.1,0.7-1.7,2.3-1.7c1.6,0,2.5,0.7,2.5,1.9h-1    c0-0.9-0.5-1.5-1.5-1.5c-0.9,0-1.4,0.4-1.4,1.1C129.9,90.3,130.5,90.6,131.8,91.1z"/>
		<path d="M137.5,88.1h5.9v0.4h-2.5v6.3h-1v-6.3h-2.5L137.5,88.1L137.5,88.1z"/>
		<path d="M150.2,88.1c2,0,3.4,1.4,3.4,3.4s-1.4,3.4-3.4,3.4s-3.4-1.5-3.4-3.4S148.3,88.1,150.2,88.1z M150.2,94.5    c1.4,0,2.4-1.3,2.4-3.1s-1-3.1-2.4-3.1c-1.4,0-2.4,1.3-2.4,3.1C147.8,93.3,148.9,94.5,150.2,94.5z"/>
		<path d="M158.1,88.1h2.3c1.5,0,2.5,0.7,2.5,1.9c0,1-0.6,1.6-1.7,1.8l2,3h-1l-2-3h-1.2v3h-1V88.1z M159.1,88.5v3h1.1    c1,0,1.7-0.5,1.7-1.5c0-1-0.7-1.5-1.7-1.5H159.1z"/>
		<path d="M167.6,88.1h4.7v0.4h-3.8v2.7h3.5v0.4h-3.5v2.9h3.9v0.4h-4.8V88.1z"/>
	</g>
	<g>
		<path d="M34.8,44.3v21l2.8,2.1v0.8h-2.8H28h-2.8v-0.8l2.8-2.1V45.8l-9.2,16.9h-1.2L7.9,45.8v19.5l2.8,2.1v0.8H7H4.2v-0.8L7,65.4    V44.6l-2.8-2.4v-0.8h9.4l8.1,13.9l7.5-13.9h5.6h2.8v0.8L34.8,44.3z"/>
		<path d="M81.4,67.5v0.8H69.1v-0.8l2.2-2.3l-2.5-5H57.5l-2.3,5.2l3.2,2v0.8h-7.1v-0.8l2.9-2l10.6-24h1.8l12.4,23.6L81.4,67.5z     M68.4,59.4l-5.5-10.8h-0.2l-4.8,10.8C57.9,59.4,68.4,59.4,68.4,59.4z"/>
		<path d="M119.2,58.6v9.6h-24v-0.8l2.9-2.1v-21l-2.9-2.1v-0.8h12.6v0.8l-2.9,2.1v23.1h6.9l6.5-8.8    C118.4,58.6,119.2,58.6,119.2,58.6z"/>
		<path d="M159,42.2l-2.8,2l-10.4,24h-1.8l-12.3-23.6l-2.3-2.4v-0.8h12.2v0.8l-2.2,2.2l8.4,16.6h0.2l7.3-16.8l-3.2-2v-0.8h7    L159,42.2L159,42.2z"/>
		<path d="M196.8,67.5v0.8h-12.3v-0.8l2.2-2.3l-2.5-5h-11.3l-2.3,5.2l3.2,2v0.8h-7.1v-0.8l2.9-2l10.6-24h1.8l12.4,23.6L196.8,67.5z     M183.8,59.4l-5.5-10.8H178l-4.8,10.8C173.2,59.4,183.8,59.4,183.8,59.4z"/>
	</g>
	<g>
		<path d="M55.4,16.2h-1.6v1h2.8V18h-3.8v-4.3h3.6v0.8h-2.7v0.8h1.6V16.2z"/>
		<path d="M63,14.8c-0.3-0.2-0.8-0.5-1.5-0.5c-0.4,0-0.8,0.2-0.8,0.5c0,0.4,0.6,0.4,1.1,0.5c0.8,0.1,2,0.1,2,1.3    c0,1.1-0.9,1.5-2,1.5c-1.1,0-1.9-0.4-2.4-0.9l0.5-0.7c0.4,0.3,1,0.7,1.9,0.7c0.6,0,1-0.2,1-0.6c0-0.4-0.4-0.5-1.1-0.6    c-1-0.1-2.1-0.2-2.1-1.3c0-1.1,1-1.4,1.8-1.4c0.9,0,1.7,0.3,2,0.6L63,14.8z"/>
		<path d="M66.7,13.7h4.1v0.8h-1.6V18h-1v-3.5h-1.6V13.7z"/>
		<path d="M73.6,17c0.4,0,0.6,0.3,0.6,0.6c0,0.3-0.3,0.6-0.6,0.6c-0.3,0-0.6-0.2-0.6-0.6C73,17.3,73.2,17,73.6,17z"/>
	</g>
	<g>
		<path d="M135,17.4c0-0.9,0.8-1.4,1.7-1.6c0.2-0.1,0.7-0.2,0.7-0.5c0-0.3-0.3-0.4-0.6-0.4c-0.5,0-0.9,0.3-1.3,0.6l-0.5-0.6    c0.5-0.4,1-0.7,1.8-0.7c0.8,0,1.6,0.3,1.6,1.1c0,0.9-0.9,1.1-1.5,1.3c-0.6,0.2-0.9,0.4-0.9,0.7v0h2.3V18H135L135,17.4L135,17.4z"/>
		<path d="M142.7,14.1c1.1,0,2.1,0.9,2.1,2c0,1.1-1,2-2.1,2c-1.1,0-2.1-0.9-2.1-2C140.7,15,141.6,14.1,142.7,14.1z M142.7,17.4    c0.6,0,1.2-0.6,1.2-1.2c0-0.7-0.5-1.2-1.2-1.2c-0.7,0-1.2,0.6-1.2,1.2C141.6,16.8,142.1,17.4,142.7,17.4z"/>
		<path d="M147,14.8l1.2-0.5h0.8V18h-0.9v-2.9l-0.9,0.4L147,14.8z"/>
		<path d="M152.2,17.2c0.3,0.1,0.7,0.2,1,0.2c0.7,0,1.3-0.4,1.4-1.2c-0.4,0.3-0.8,0.5-1.4,0.5c-1,0-1.6-0.6-1.6-1.2    c0-0.8,0.7-1.4,1.8-1.4c1.1,0,2.1,0.7,2.1,1.9c0,1.3-1.1,2.1-2.2,2.1c-0.7,0-1.2-0.2-1.5-0.3L152.2,17.2z M154.5,15.7    c-0.2-0.5-0.6-0.8-1.2-0.8c-0.5,0-0.9,0.3-0.9,0.6c0,0.2,0.2,0.5,0.8,0.5C153.7,16.1,154.2,15.9,154.5,15.7z"/>
	</g>
	<path d="M110.6,8c0-3.3-2.7-5.9-5.9-5.9c-3.3,0-5.9,2.7-5.9,5.9c0,0.1,0,0.3,0,0.4v12.8h11.8V8.4C110.6,8.2,110.6,8.1,110.6,8z"/>
	<g>
		<path d="M126.8,8c0-3.3-2.7-5.9-5.9-5.9c-3.3,0-5.9,2.7-5.9,5.9c0,0.1,0,0.3,0,0.4v12.8h11.8V8.4C126.8,8.2,126.8,8.1,126.8,8z"/>
		<path d="M94.4,8c0-3.3-2.7-5.9-5.9-5.9S82.5,4.7,82.5,8c0,0.1,0,0.3,0,0.4v12.8h11.8V8.4C94.4,8.2,94.4,8.1,94.4,8z"/>
	</g>
</g>
</svg>